<svg width="24" height="24" viewBox="0 0 24 24" fill="none" xmlns="http://www.w3.org/2000/svg">
<rect width="24" height="24" fill="#FF0000" fill-opacity="0.01"/>
<path fill-rule="evenodd" clip-rule="evenodd" d="M17.2015 15.819L20.5132 19.1307C20.8955 19.512 20.8955 20.1319 20.5132 20.5132C20.1319 20.8955 19.513 20.8955 19.1307 20.5132L15.819 17.2015C14.4941 18.2311 12.83 18.8442 11.0221 18.8442C6.7023 18.8442 3.19995 15.3418 3.19995 11.0221C3.19995 6.7023 6.7023 3.19995 11.0221 3.19995C15.3418 3.19995 18.8442 6.7023 18.8442 11.0221C18.8442 12.83 18.2311 14.4941 17.2015 15.819ZM5.15548 11.0221C5.15548 14.2624 7.78175 16.8886 11.0221 16.8886C14.2624 16.8886 16.8886 14.2624 16.8886 11.0221C16.8886 7.78175 14.2624 5.15548 11.0221 5.15548C7.78175 5.15548 5.15548 7.78175 5.15548 11.0221Z" fill="black"/>
<mask id="mask0_1_494" style="mask-type:alpha" maskUnits="userSpaceOnUse" x="3" y="3" width="18" height="18">
<path fill-rule="evenodd" clip-rule="evenodd" d="M17.2015 15.819L20.5132 19.1307C20.8955 19.512 20.8955 20.1319 20.5132 20.5132C20.1319 20.8955 19.513 20.8955 19.1307 20.5132L15.819 17.2015C14.4941 18.2311 12.83 18.8442 11.0221 18.8442C6.7023 18.8442 3.19995 15.3418 3.19995 11.0221C3.19995 6.7023 6.7023 3.19995 11.0221 3.19995C15.3418 3.19995 18.8442 6.7023 18.8442 11.0221C18.8442 12.83 18.2311 14.4941 17.2015 15.819ZM5.15548 11.0221C5.15548 14.2624 7.78175 16.8886 11.0221 16.8886C14.2624 16.8886 16.8886 14.2624 16.8886 11.0221C16.8886 7.78175 14.2624 5.15548 11.0221 5.15548C7.78175 5.15548 5.15548 7.78175 5.15548 11.0221Z" fill="white"/>
</mask>
<g mask="url(#mask0_1_494)">
<rect width="24" height="24" fill="#C1C0C9"/>
</g>
</svg>
